<svg width="15" height="15" viewBox="0 0 15 15" fill="none" xmlns="http://www.w3.org/2000/svg">
<path fill-rule="evenodd" clip-rule="evenodd" d="M5.61242 2.7484C5.76674 2.71449 5.92714 2.72015 6.07869 2.76483C6.22991 2.80941 6.36739 2.89139 6.47853 3.00319C6.47877 3.00346 6.47905 3.00374 6.47933 3.00401L11.996 8.52071C11.9963 8.52099 11.9966 8.52132 11.9969 8.5216C12.1087 8.63269 12.1906 8.77018 12.2352 8.9213C12.2799 9.07289 12.2855 9.23325 12.2516 9.38761C12.2177 9.54193 12.1453 9.68522 12.0412 9.8041C11.9371 9.92297 11.8047 10.0136 11.6562 10.0676L2.98136 13.2188C2.81452 13.2817 2.63312 13.2953 2.45871 13.2581C2.28278 13.2206 2.12147 13.1329 1.99428 13.0058C1.86708 12.8785 1.77943 12.7172 1.7419 12.5413C1.70469 12.3669 1.71835 12.1854 1.78119 12.0186L4.93245 3.34391C4.98641 3.19539 5.07706 3.06288 5.19594 2.95878C5.31481 2.85467 5.45806 2.78231 5.61242 2.7484ZM2.22067 12.1817L2.65852 12.3491C2.65892 12.348 2.65901 12.3468 2.65878 12.3458C2.65854 12.3446 2.65799 12.3436 2.65719 12.3428C2.65639 12.342 2.65538 12.3415 2.65427 12.3413C2.6532 12.341 2.65208 12.3411 2.65104 12.3414L2.65571 12.3397L2.22067 12.1817ZM2.66295 12.3371L11.336 9.18643L11.3345 9.18502L5.81502 3.66549L5.81356 3.66406L2.66295 12.3371Z" fill="#013A57"/>
<path fill-rule="evenodd" clip-rule="evenodd" d="M12.6562 0.9375C12.9151 0.9375 13.125 1.14737 13.125 1.40625H12.6562C13.125 1.40625 13.125 1.40648 13.125 1.40672V1.40723V1.40835V1.41099L13.1249 1.41784C13.1248 1.4231 13.1247 1.42974 13.1244 1.43766C13.1239 1.45349 13.1229 1.47454 13.1211 1.50007C13.1174 1.55099 13.1104 1.62066 13.0966 1.70304C13.0695 1.86557 13.0145 2.08945 12.8997 2.319C12.784 2.55039 12.6031 2.79604 12.323 2.9828C12.0399 3.17151 11.6836 3.28125 11.25 3.28125C10.9805 3.28125 10.8095 3.34729 10.697 3.42225C10.5817 3.49917 10.4989 3.60508 10.4388 3.72525C10.3778 3.84727 10.3449 3.97495 10.3281 4.07609C10.3199 4.12554 10.3159 4.16573 10.314 4.19172C10.3132 4.20464 10.3127 4.2138 10.3126 4.21857L10.3125 4.22203C10.3107 4.4794 10.1016 4.6875 9.84375 4.6875C9.58486 4.6875 9.375 4.47763 9.375 4.21875H9.84375C9.375 4.21875 9.375 4.21852 9.375 4.21828V4.21777V4.21665V4.21401L9.37509 4.20716C9.37519 4.2019 9.37533 4.19526 9.37561 4.18734C9.37613 4.17151 9.37711 4.15046 9.37894 4.12493C9.38259 4.07401 9.38962 4.00434 9.40336 3.92196C9.43045 3.75943 9.48548 3.53555 9.60028 3.306C9.71597 3.07461 9.89686 2.82896 10.177 2.6422C10.4601 2.45349 10.8164 2.34375 11.25 2.34375C11.5195 2.34375 11.6905 2.27771 11.803 2.20275C11.9183 2.12583 12.0011 2.01992 12.0612 1.89975C12.1222 1.77773 12.1551 1.65005 12.1719 1.54891C12.1801 1.49946 12.1841 1.45927 12.186 1.43328C12.1869 1.42036 12.1873 1.4112 12.1874 1.40643L12.1875 1.40298C12.1893 1.1456 12.3984 0.9375 12.6562 0.9375Z" fill="#013A57"/>
<path fill-rule="evenodd" clip-rule="evenodd" d="M3.04351 8.66854C3.22657 8.48549 3.52337 8.48549 3.70643 8.66854L6.33145 11.2935C6.51449 11.4766 6.51449 11.7734 6.33145 11.9564C6.14835 12.1395 5.85159 12.1395 5.66849 11.9564L3.04351 9.33144C2.86046 9.14839 2.86046 8.85158 3.04351 8.66854Z" fill="#013A57"/>
<path fill-rule="evenodd" clip-rule="evenodd" d="M8.4375 0.46875C8.69639 0.46875 8.90625 0.678619 8.90625 0.9375V2.34375C8.90625 2.60263 8.69639 2.8125 8.4375 2.8125C8.17861 2.8125 7.96875 2.60263 7.96875 2.34375V0.9375C7.96875 0.678619 8.17861 0.46875 8.4375 0.46875Z" fill="#013A57"/>
<path fill-rule="evenodd" clip-rule="evenodd" d="M12.3248 6.23104C12.5078 6.04799 12.8046 6.04799 12.9877 6.23104L13.9252 7.16854C14.1082 7.35158 14.1082 7.64839 13.9252 7.83144C13.7421 8.01449 13.4453 8.01449 13.2623 7.83144L12.3248 6.89394C12.1417 6.71089 12.1417 6.41408 12.3248 6.23104Z" fill="#013A57"/>
<path fill-rule="evenodd" clip-rule="evenodd" d="M14.5072 4.07065C14.5891 4.31624 14.4563 4.58171 14.2108 4.66357L12.8045 5.13233C12.5589 5.21418 12.2934 5.08147 12.2115 4.83585C12.1297 4.59026 12.2625 4.3248 12.508 4.24293L13.9143 3.77418C14.1599 3.69232 14.4254 3.82505 14.5072 4.07065Z" fill="#013A57"/>
<path fill-rule="evenodd" clip-rule="evenodd" d="M4.16852 5.57479C4.35157 5.39174 4.64837 5.39174 4.83144 5.57479L9.42519 10.1685C9.60823 10.3516 9.60823 10.6484 9.42519 10.8314C9.24214 11.0145 8.94533 11.0145 8.76228 10.8314L4.16852 6.23769C3.98545 6.05464 3.98545 5.75783 4.16852 5.57479Z" fill="#013A57"/>
</svg>
